<svg xmlns="http://www.w3.org/2000/svg" viewBox="0 0 64 64" width="64" height="64">
  <defs>
    <linearGradient id="g" x1="0" y1="0" x2="0" y2="1">
      <stop offset="0" stop-color="#4ee6cd"/>
      <stop offset="1" stop-color="#17a594"/>
    </linearGradient>
  </defs>
  <rect width="64" height="64" rx="14" fill="#0b1220"/>
  <path d="M32 9 51 16.5v14.8c0 11.9-7.6 19.9-19 23.7-11.4-3.8-19-11.8-19-23.7V16.5z"
        fill="url(#g)" opacity=".16"/>
  <path d="M32 9 51 16.5v14.8c0 11.9-7.6 19.9-19 23.7-11.4-3.8-19-11.8-19-23.7V16.5z"
        fill="none" stroke="url(#g)" stroke-width="3.4" stroke-linejoin="round"/>
  <circle cx="32" cy="30" r="4.6" fill="url(#g)"/>
  <path d="M22.6 30a9.4 9.4 0 0 1 18.8 0" fill="none" stroke="url(#g)"
        stroke-width="2.8" stroke-linecap="round"/>
  <path d="M32 39.2V45" fill="none" stroke="url(#g)" stroke-width="2.8" stroke-linecap="round"/>
</svg>
